HIERARCHY
ROOT Hips
{
    OFFSET 0.000 97.120 0.000
    CHANNELS 6 Xposition Yposition Zposition Yrotation Xrotation Zrotation
    JOINT RightUpLeg
    {
        OFFSET -11.000 -0.000 0.000
        CHANNELS 6 Xposition Yposition Zposition Yrotation Xrotation Zrotation
        JOINT RightLeg
        {
            OFFSET 0.000 -45.062 0.000
            CHANNELS 6 Xposition Yposition Zposition Yrotation Xrotation Zrotation
            JOINT RightFoot
            {
                OFFSET 0.000 -42.058 0.000
                CHANNELS 6 Xposition Yposition Zposition Yrotation Xrotation Zrotation
                End Site
                {
                    OFFSET 0.000 -10.000 17.010
                }
            }
        }
    }
    JOINT LeftUpLeg
    {
        OFFSET 11.000 -0.000 0.000
        CHANNELS 6 Xposition Yposition Zposition Yrotation Xrotation Zrotation
        JOINT LeftLeg
        {
            OFFSET 0.000 -45.062 0.000
            CHANNELS 6 Xposition Yposition Zposition Yrotation Xrotation Zrotation
            JOINT LeftFoot
            {
                OFFSET 0.000 -42.058 0.000
                CHANNELS 6 Xposition Yposition Zposition Yrotation Xrotation Zrotation
                End Site
                {
                    OFFSET 0.000 -10.000 17.010
                }
            }
        }
    }
    JOINT Spine
    {
        OFFSET 0.000 8.120 0.000
        CHANNELS 6 Xposition Yposition Zposition Yrotation Xrotation Zrotation
        JOINT Spine1
        {
            OFFSET 0.000 17.980 0.000
            CHANNELS 6 Xposition Yposition Zposition Yrotation Xrotation Zrotation
            JOINT Spine2
            {
                OFFSET 0.000 12.760 0.000
                CHANNELS 6 Xposition Yposition Zposition Yrotation Xrotation Zrotation
                JOINT Neck
                {
                    OFFSET 0.000 19.140 0.000
                    CHANNELS 6 Xposition Yposition Zposition Yrotation Xrotation Zrotation
                    JOINT Neck1
                    {
                        OFFSET 0.000 4.250 0.000
                        CHANNELS 6 Xposition Yposition Zposition Yrotation Xrotation Zrotation
                        JOINT Head
                        {
                            OFFSET 0.000 4.250 0.000
                            CHANNELS 6 Xposition Yposition Zposition Yrotation Xrotation Zrotation
                            End Site
                            {
                                OFFSET 0.000 19.120 0.000
                            }
                        }
                    }
                }
                JOINT RightShoulder
                {
                    OFFSET -2.900 13.340 0.000
                    CHANNELS 6 Xposition Yposition Zposition Yrotation Xrotation Zrotation
                    JOINT RightArm
                    {
                        OFFSET -16.100 0.000 0.000
                        CHANNELS 6 Xposition Yposition Zposition Yrotation Xrotation Zrotation
                        JOINT RightForeArm
                        {
                            OFFSET -28.000 0.000 0.000
                            CHANNELS 6 Xposition Yposition Zposition Yrotation Xrotation Zrotation
                            JOINT RightHand
                            {
                                OFFSET -26.000 0.000 0.000
                                CHANNELS 6 Xposition Yposition Zposition Yrotation Xrotation Zrotation
                                JOINT RightHandThumb1
                                {
                                    OFFSET -2.617 0.200 3.281
                                    CHANNELS 6 Xposition Yposition Zposition Yrotation Xrotation Zrotation
                                    JOINT RightHandThumb2
                                    {
                                        OFFSET -1.936 -2.738 1.936
                                        CHANNELS 6 Xposition Yposition Zposition Yrotation Xrotation Zrotation
                                        JOINT RightHandThumb3
                                        {
                                            OFFSET -1.345 -1.902 1.345
                                            CHANNELS 6 Xposition Yposition Zposition Yrotation Xrotation Zrotation
                                            End Site
                                            {
                                                OFFSET -1.153 -1.631 1.153
                                            }
                                        }
                                    }
                                }
                                JOINT RightInHandIndex
                                {
                                    OFFSET -3.389 0.535 2.080
                                    CHANNELS 6 Xposition Yposition Zposition Yrotation Xrotation Zrotation
                                    JOINT RightHandIndex1
                                    {
                                        OFFSET -5.485 -0.096 1.051
                                        CHANNELS 6 Xposition Yposition Zposition Yrotation Xrotation Zrotation
                                        JOINT RightHandIndex2
                                        {
                                            OFFSET -3.806 0.000 0.000
                                            CHANNELS 6 Xposition Yposition Zposition Yrotation Xrotation Zrotation
                                            JOINT RightHandIndex3
                                            {
                                                OFFSET -2.158 0.000 0.000
                                                CHANNELS 6 Xposition Yposition Zposition Yrotation Xrotation Zrotation
                                                End Site
                                                {
                                                    OFFSET -1.898 0.000 0.000
                                                }
                                            }
                                        }
                                    }
                                }
                                JOINT RightInHandMiddle
                                {
                                    OFFSET -3.556 0.544 0.796
                                    CHANNELS 6 Xposition Yposition Zposition Yrotation Xrotation Zrotation
                                    JOINT RightHandMiddle1
                                    {
                                        OFFSET -5.440 -0.088 0.330
                                        CHANNELS 6 Xposition Yposition Zposition Yrotation Xrotation Zrotation
                                        JOINT RightHandMiddle2
                                        {
                                            OFFSET -4.153 0.000 0.000
                                            CHANNELS 6 Xposition Yposition Zposition Yrotation Xrotation Zrotation
                                            JOINT RightHandMiddle3
                                            {
                                                OFFSET -2.603 0.000 0.000
                                                CHANNELS 6 Xposition Yposition Zposition Yrotation Xrotation Zrotation
                                                End Site
                                                {
                                                    OFFSET -2.076 0.000 0.000
                                                }
                                            }
                                        }
                                    }
                                }
                                JOINT RightInHandRing
                                {
                                    OFFSET -3.538 0.566 -0.136
                                    CHANNELS 6 Xposition Yposition Zposition Yrotation Xrotation Zrotation
                                    JOINT RightHandRing1
                                    {
                                        OFFSET -4.873 -0.023 -0.504
                                        CHANNELS 6 Xposition Yposition Zposition Yrotation Xrotation Zrotation
                                        JOINT RightHandRing2
                                        {
                                            OFFSET -3.619 0.000 0.000
                                            CHANNELS 6 Xposition Yposition Zposition Yrotation Xrotation Zrotation
                                            JOINT RightHandRing3
                                            {
                                                OFFSET -2.511 0.000 0.000
                                                CHANNELS 6 Xposition Yposition Zposition Yrotation Xrotation Zrotation
                                                End Site
                                                {
                                                    OFFSET -1.952 0.000 0.000
                                                }
                                            }
                                        }
                                    }
                                }
                                JOINT RightInHandPinky
                                {
                                    OFFSET -3.324 0.494 -1.264
                                    CHANNELS 6 Xposition Yposition Zposition Yrotation Xrotation Zrotation
                                    JOINT RightHandPinky1
                                    {
                                        OFFSET -4.354 -0.023 -1.147
                                        CHANNELS 6 Xposition Yposition Zposition Yrotation Xrotation Zrotation
                                        JOINT RightHandPinky2
                                        {
                                            OFFSET -2.898 0.000 0.000
                                            CHANNELS 6 Xposition Yposition Zposition Yrotation Xrotation Zrotation
                                            JOINT RightHandPinky3
                                            {
                                                OFFSET -1.831 0.000 0.000
                                                CHANNELS 6 Xposition Yposition Zposition Yrotation Xrotation Zrotation
                                                End Site
                                                {
                                                    OFFSET -1.730 0.000 0.000
                                                }
                                            }
                                        }
                                    }
                                }
                            }
                        }
                    }
                }
                JOINT LeftShoulder
                {
                    OFFSET 2.900 13.340 0.000
                    CHANNELS 6 Xposition Yposition Zposition Yrotation Xrotation Zrotation
                    JOINT LeftArm
                    {
                        OFFSET 16.100 0.000 0.000
                        CHANNELS 6 Xposition Yposition Zposition Yrotation Xrotation Zrotation
                        JOINT LeftForeArm
                        {
                            OFFSET 28.000 0.000 0.000
                            CHANNELS 6 Xposition Yposition Zposition Yrotation Xrotation Zrotation
                            JOINT LeftHand
                            {
                                OFFSET 26.000 0.000 0.000
                                CHANNELS 6 Xposition Yposition Zposition Yrotation Xrotation Zrotation
                                JOINT LeftHandThumb1
                                {
                                    OFFSET 2.617 0.200 3.281
                                    CHANNELS 6 Xposition Yposition Zposition Yrotation Xrotation Zrotation
                                    JOINT LeftHandThumb2
                                    {
                                        OFFSET 1.936 -2.738 1.936
                                        CHANNELS 6 Xposition Yposition Zposition Yrotation Xrotation Zrotation
                                        JOINT LeftHandThumb3
                                        {
                                            OFFSET 1.345 -1.902 1.345
                                            CHANNELS 6 Xposition Yposition Zposition Yrotation Xrotation Zrotation
                                            End Site
                                            {
                                                OFFSET 1.153 -1.631 1.153
                                            }
                                        }
                                    }
                                }
                                JOINT LeftInHandIndex
                                {
                                    OFFSET 3.389 0.535 2.080
                                    CHANNELS 6 Xposition Yposition Zposition Yrotation Xrotation Zrotation
                                    JOINT LeftHandIndex1
                                    {
                                        OFFSET 5.485 -0.096 1.051
                                        CHANNELS 6 Xposition Yposition Zposition Yrotation Xrotation Zrotation
                                        JOINT LeftHandIndex2
                                        {
                                            OFFSET 3.806 0.000 0.000
                                            CHANNELS 6 Xposition Yposition Zposition Yrotation Xrotation Zrotation
                                            JOINT LeftHandIndex3
                                            {
                                                OFFSET 2.158 0.000 0.000
                                                CHANNELS 6 Xposition Yposition Zposition Yrotation Xrotation Zrotation
                                                End Site
                                                {
                                                    OFFSET 1.898 0.000 0.000
                                                }
                                            }
                                        }
                                    }
                                }
                                JOINT LeftInHandMiddle
                                {
                                    OFFSET 3.556 0.544 0.796
                                    CHANNELS 6 Xposition Yposition Zposition Yrotation Xrotation Zrotation
                                    JOINT LeftHandMiddle1
                                    {
                                        OFFSET 5.440 -0.088 0.330
                                        CHANNELS 6 Xposition Yposition Zposition Yrotation Xrotation Zrotation
                                        JOINT LeftHandMiddle2
                                        {
                                            OFFSET 4.153 0.000 0.000
                                            CHANNELS 6 Xposition Yposition Zposition Yrotation Xrotation Zrotation
                                            JOINT LeftHandMiddle3
                                            {
                                                OFFSET 2.603 0.000 0.000
                                                CHANNELS 6 Xposition Yposition Zposition Yrotation Xrotation Zrotation
                                                End Site
                                                {
                                                    OFFSET 2.076 0.000 0.000
                                                }
                                            }
                                        }
                                    }
                                }
                                JOINT LeftInHandRing
                                {
                                    OFFSET 3.538 0.566 -0.136
                                    CHANNELS 6 Xposition Yposition Zposition Yrotation Xrotation Zrotation
                                    JOINT LeftHandRing1
                                    {
                                        OFFSET 4.873 -0.023 -0.504
                                        CHANNELS 6 Xposition Yposition Zposition Yrotation Xrotation Zrotation
                                        JOINT LeftHandRing2
                                        {
                                            OFFSET 3.619 0.000 0.000
                                            CHANNELS 6 Xposition Yposition Zposition Yrotation Xrotation Zrotation
                                            JOINT LeftHandRing3
                                            {
                                                OFFSET 2.511 0.000 0.000
                                                CHANNELS 6 Xposition Yposition Zposition Yrotation Xrotation Zrotation
                                                End Site
                                                {
                                                    OFFSET 1.952 0.000 0.000
                                                }
                                            }
                                        }
                                    }
                                }
                                JOINT LeftInHandPinky
                                {
                                    OFFSET 3.324 0.494 -1.264
                                    CHANNELS 6 Xposition Yposition Zposition Yrotation Xrotation Zrotation
                                    JOINT LeftHandPinky1
                                    {
                                        OFFSET 4.354 -0.023 -1.147
                                        CHANNELS 6 Xposition Yposition Zposition Yrotation Xrotation Zrotation
                                        JOINT LeftHandPinky2
                                        {
                                            OFFSET 2.898 0.000 0.000
                                            CHANNELS 6 Xposition Yposition Zposition Yrotation Xrotation Zrotation
                                            JOINT LeftHandPinky3
                                            {
                                                OFFSET 1.831 0.000 0.000
                                                CHANNELS 6 Xposition Yposition Zposition Yrotation Xrotation Zrotation
                                                End Site
                                                {
                                                    OFFSET 1.730 0.000 0.000
                                                }
                                            }
                                        }
                                    }
                                }
                            }
                        }
                    }
                }
            }
        }
    }
}
MOTION
Frames: 2
Frame Time: 0.011111
-154.429108 97.275932 118.957756 90.757935 -173.689087 -179.563629 -11.152271 -0.210104 0.035234 5.924100 -8.103625 7.380668 -0.060296 -45.079082 -0.021520 9.782671 28.573305 0.147599 -0.214281 -42.236458 0.060898 2.713140 -14.256558 -3.077614 10.903204 0.082661 0.038860 10.170052 -23.034389 15.108570 0.031301 -45.010933 -0.019678 172.355942 140.797913 153.629120 -0.038342 -42.009945 -0.020030 6.975228 -1.966517 -3.635908 0.077041 8.132352 0.072787 1.664572 7.631965 -2.323346 0.029563 18.005838 0.036112 1.661286 7.535387 -4.022871 0.013438 12.781570 -0.060243 8.728070 6.340950 -4.153637 -0.000001 19.138807 -0.016922 180.000000 -173.876541 -175.358154 -0.000175 4.251740 -0.003910 0.000014 -7.144045 4.807619 0.000277 4.249529 0.008812 2.721845 -5.191915 2.700853 -2.884820 13.356786 0.015450 3.498832 -12.123898 -1.835228 -16.081875 0.003528 0.014596 9.288598 3.759479 94.625328 -27.997791 -0.012407 0.014655 11.629779 24.340494 7.397838 -25.997517 -0.007284 0.012669 5.710213 11.530104 -1.526643 -2.617061 0.199882 3.281011 160.970367 158.227036 128.537750 -1.936067 -2.738013 1.936067 165.772934 164.805862 172.743195 -1.344943 -1.902037 1.344943 0.137018 3.770262 3.795166 -3.389474 0.534568 2.080168 1.493717 4.505292 -1.910689 -5.485137 -0.096067 1.050543 15.456472 -0.163154 41.754871 -3.805507 0.000000 0.000000 0.348974 0.188643 34.164177 -2.157642 0.000000 0.000000 0.117694 0.285591 25.298717 -3.556042 0.543865 0.795655 1.493717 4.505292 -1.910689 -5.440202 -0.088320 0.330038 180.000000 -179.999985 160.000000 -4.152589 0.000000 0.000000 0.000000 0.000000 -0.000003 -2.603116 0.000000 0.000000 0.000000 0.000000 -0.000003 -3.538223 0.565558 -0.135579 1.493717 4.505292 -1.910689 -4.873095 -0.023242 -0.503579 170.342804 -179.874649 -148.521378 -3.619416 0.000000 0.000000 0.022132 0.005603 53.751045 -2.510922 0.000000 0.000000 0.040861 0.106217 34.584251 -3.323621 0.493507 -1.263596 1.493717 4.505292 -1.910689 -4.354021 -0.023242 -1.146610 160.067154 -179.971161 -139.432755 -2.898290 0.000000 0.000000 0.103827 0.035213 60.850880 -1.831478 0.000000 0.000000 0.011445 0.072111 40.526646 2.906318 13.329302 -0.016250 168.936142 -169.930878 -173.654205 16.098286 -0.006518 -0.004509 179.319138 174.015976 91.806885 28.000875 -0.004819 -0.001197 158.061295 -157.458801 178.716217 25.990873 0.012344 0.023991 178.779678 145.956757 -167.045624 2.617061 0.199882 3.281011 173.412079 168.029510 -144.917877 1.936067 -2.738013 1.936067 5.559667 -4.096882 10.402366 1.344943 -1.902037 1.344943 179.561462 -172.946991 -172.892929 3.389474 0.534568 2.080168 0.344074 -0.756045 -0.743357 5.485137 -0.096067 1.050543 164.999222 -179.996979 163.861710 3.805507 0.000000 0.000000 179.998749 -179.997772 166.795944 2.157642 0.000000 0.000000 179.998810 -179.998672 170.757172 3.556042 0.543865 0.795655 0.344074 -0.756045 -0.743357 5.440202 -0.088320 0.330038 0.001371 -0.002453 -21.651760 4.152589 0.000000 0.000000 0.000386 -0.002799 -21.651793 2.603116 0.000000 0.000000 179.999588 -179.998169 165.579941 3.538223 0.565558 -0.135579 0.344074 -0.756045 -0.743357 4.873095 -0.023242 -0.503579 10.004827 -0.004394 -22.067339 3.619416 0.000000 0.000000 0.002914 -0.005843 -22.067284 2.510922 0.000000 0.000000 0.000366 -0.004331 -14.696837 3.323621 0.493507 -1.263596 0.344074 -0.756045 -0.743357 4.354021 -0.023242 -1.146610 20.004795 -0.003013 -41.046864 2.898290 0.000000 0.000000 0.002590 -0.008111 -61.570316 1.831478 0.000000 0.000000 179.996109 -179.995850 138.994156 
-154.283035 97.394135 118.728111 90.677368 -173.816177 -179.538925 -11.142670 -0.222545 -0.001789 5.735232 -8.152479 7.332940 -0.034808 -45.096931 -0.000801 9.998901 28.158798 0.323425 -0.176412 -42.260212 0.064258 2.831087 -13.905406 -3.217636 10.899706 0.072421 0.031794 10.244987 -22.347588 15.021216 0.019040 -45.030754 -0.006519 171.950195 140.089340 153.350250 -0.025515 -42.014931 0.020324 7.008865 -1.701716 -3.208786 0.076120 8.137456 0.081507 1.650947 7.498896 -2.302864 0.030380 18.010778 0.041081 1.647753 7.403965 -3.984823 0.013175 12.788015 -0.056675 8.638011 6.233514 -4.130857 -0.000749 19.138649 -0.018587 0.000113 -6.006577 4.649842 0.000312 4.251776 -0.004574 0.000109 -7.007677 4.815941 0.001361 4.249583 0.007696 2.806799 -5.098919 2.698374 -2.879285 13.366347 0.017472 3.621603 -12.263904 -1.594173 -16.108232 0.009070 0.004365 9.402413 4.376056 94.002045 -27.993233 0.001410 0.009201 12.805266 25.540098 8.026630 -26.004663 -0.003037 -0.006945 6.246951 13.279665 -2.313559 -2.617061 0.199882 3.281011 161.649734 161.077118 130.378647 -1.936067 -2.738013 1.936067 165.953049 163.412994 173.548248 -1.344943 -1.902037 1.344943 0.161769 4.576649 4.567976 -3.389474 0.534568 2.080168 2.405813 7.187146 -1.384649 -5.485137 -0.096067 1.050543 15.097126 -0.050581 52.506809 -3.805507 0.000000 0.000000 0.079167 0.041972 42.960182 -2.157642 0.000000 0.000000 0.019438 0.064337 32.220139 -3.556042 0.543865 0.795655 2.405813 7.187146 -1.384649 -5.440202 -0.088320 0.330038 0.000002 -0.000003 -20.000002 -4.152589 0.000000 0.000000 0.000000 0.000001 0.000003 -2.603116 0.000000 0.000000 0.000000 0.000001 0.000003 -3.538223 0.565558 -0.135579 2.405813 7.187146 -1.384649 -4.873095 -0.023242 -0.503579 170.088348 -179.953964 -140.763229 -3.619416 0.000000 0.000000 0.000992 0.000237 54.386883 -2.510922 0.000000 0.000000 0.009846 0.024386 37.140514 -3.323621 0.493507 -1.263596 2.405813 7.187146 -1.384649 -4.354021 -0.023242 -1.146610 160.028580 -179.983643 -138.181686 -2.898290 0.000000 0.000000 0.048077 0.011342 62.727371 -1.831478 0.000000 0.000000 0.007240 0.032098 41.776447 2.904040 13.335255 -0.017608 169.107285 -170.027710 -173.654404 16.103727 0.000253 -0.002968 179.518784 173.977234 91.529831 28.001844 0.002229 -0.003563 158.134659 -157.546371 178.633682 25.991865 0.011781 0.018892 178.997940 146.191864 -167.276901 2.617061 0.199882 3.281011 173.388229 168.511154 -145.236618 1.936067 -2.738013 1.936067 4.944861 -4.643034 10.294665 1.344943 -1.902037 1.344943 179.561462 -172.946976 -172.892914 3.389474 0.534568 2.080168 0.494911 -0.484755 -1.241586 5.485137 -0.096067 1.050543 165.001617 -179.997025 164.366409 3.805507 0.000000 0.000000 0.000618 -0.002682 -12.791120 2.157642 0.000000 0.000000 0.000027 -0.001916 -8.953795 3.556042 0.543865 0.795655 0.494911 -0.484755 -1.241586 5.440202 -0.088320 0.330038 0.001743 -0.001181 -20.980398 4.152589 0.000000 0.000000 0.001229 -0.001705 -20.980404 2.603116 0.000000 0.000000 0.000334 -0.001350 -13.972946 3.538223 0.565558 -0.135579 0.494911 -0.484755 -1.241586 4.873095 -0.023242 -0.503579 10.001222 -0.000599 -20.537495 3.619416 0.000000 0.000000 0.000922 -0.000982 -20.537497 2.510922 0.000000 0.000000 0.000366 -0.000816 -13.677987 3.323621 0.493507 -1.263596 0.494911 -0.484755 -1.241586 4.354021 -0.023242 -1.146610 20.007921 -0.003038 -40.554024 2.898290 0.000000 0.000000 0.006263 -0.011093 -60.831051 1.831478 0.000000 0.000000 179.995697 -179.992706 139.486496 
